# xmcd
#
# Track frame offsets: 
#        150
#        16833
#        33244
#        51798
#        68175
#        84405
#        102926
#        118044
#        133763
#        151526
#        165572
#        179062
#        194650
#        210914
#        227216
#        243649
#        257132
#        273255
#        286624
#        301514
#
# Disc length: 4251 seconds
#
# Revision: 0
# Processed by: cddbd v1.5.2PL0 Copyright (c) Steve Scherf et al.
# Submitted via: ExactAudioCopy v1.1
#
DISCID=09109914
DTITLE=Various Artist - De Foute CD 2018 - CD 1
DYEAR=2018
DGENRE=Pop
TTITLE0=Vengaboys - We Like To Party
TTITLE1=Psy - Gangnam Style
TTITLE2=Captain Jack - Captain Jack
TTITLE3=Mo-Do - Eins Zwei Polizei
TTITLE4=Mad'House - Like A Prayer
TTITLE5=Poco Loco Gang - Let's Go To The Party
TTITLE6=Solid Solution - The Logical Song
TTITLE7=Jan Wayne - Because The Night
TTITLE8=The Tone Selector - Russian Roulette
TTITLE9=Benny Benassi - Satisfaction
TTITLE10=Snollebollekes - Snollebolleke
TTITLE11=X-Session - On And On
TTITLE12=Get Ready! - Diep
TTITLE13=Christoff - Sweet Caroline
TTITLE14=Ryan Ricks - D.I.S.C.O. - Hands Up
TTITLE15=Peter De Koning - Het Is Altijd Lente In De Ogen Van De Tanda
TTITLE15=rts-Assistente
TTITLE16=Justin Bieber - Baby
TTITLE17=X!nk - De Vriendschapsband
TTITLE18=*NSYNC - Bye Bye Bye
TTITLE19=Backstreet Boys - Get Down (You're The One For Me)
EXTD=
EXTT0=
EXTT1=
EXTT2=
EXTT3=
EXTT4=
EXTT5=
EXTT6=
EXTT7=
EXTT8=
EXTT9=
EXTT10=
EXTT11=
EXTT12=
EXTT13=
EXTT14=
EXTT15=
EXTT16=
EXTT17=
EXTT18=
EXTT19=
PLAYORDER=
